<svg width="113" height="23" viewBox="0 0 113 23" fill="none" xmlns="http://www.w3.org/2000/svg">
<path fill-rule="evenodd" clip-rule="evenodd" d="M96.5003 2C92.0999 2 89.3504 4.11125 88.2498 8.33375C89.9001 6.2225 91.8251 5.43094 94.025 5.95844C95.2801 6.25933 96.1776 7.1333 97.1702 8.1009C98.7881 9.67653 100.661 11.5 104.75 11.5C109.15 11.5 111.9 9.38875 113 5.16687C111.35 7.27812 109.425 8.06969 107.226 7.54156C105.97 7.24067 105.072 6.3667 104.08 5.39972C102.462 3.82284 100.59 2 96.5003 2ZM88.2498 11.5C83.8501 11.5 81.0999 13.6112 80 17.8337C81.6502 15.7225 83.5753 14.9309 85.7745 15.4584C87.0303 15.7593 87.9278 16.6333 88.9204 17.6009C90.5383 19.1765 92.4103 21 96.5003 21C100.9 21 103.65 18.8894 104.75 14.6669C103.1 16.7781 101.175 17.5697 98.975 17.0422C97.7199 16.7407 96.8224 15.8667 95.8298 14.8997C94.2119 13.3241 92.3392 11.5 88.2498 11.5Z" fill="#38BDF8"/>
<path d="M60.8614 4.14758C61.7127 4.34561 62.4862 4.79136 63.0844 5.42858C63.4139 5.77344 63.7001 6.15728 63.9364 6.57158C63.9474 6.61658 62.4024 7.65458 61.4654 8.23358C61.4314 8.25658 61.2964 8.10958 61.1434 7.88358C60.9723 7.58935 60.7293 7.3433 60.4373 7.16843C60.1452 6.99355 59.8136 6.89555 59.4734 6.88358C58.3964 6.80958 57.7024 7.37358 57.7074 8.31658C57.6981 8.54825 57.751 8.77819 57.8604 8.98258C58.0974 9.47258 58.5374 9.76658 59.9194 10.3656C62.4634 11.4606 63.5554 12.1826 64.2294 13.2086C64.6104 13.8568 64.845 14.5806 64.9169 15.329C64.9888 16.0775 64.8961 16.8327 64.6454 17.5416C64.3009 18.319 63.7546 18.9901 63.0632 19.4851C62.3717 19.9801 61.5604 20.281 60.7134 20.3566C59.8131 20.4598 58.9034 20.4504 58.0054 20.3286C56.6299 20.1026 55.3628 19.4424 54.3894 18.4446C54.0216 18.0304 53.7103 17.5694 53.4634 17.0736C53.5672 16.9964 53.6765 16.9269 53.7904 16.8656C53.9484 16.7756 54.5464 16.4316 55.1104 16.1046L56.1344 15.5046L56.3484 15.8166C56.7089 16.332 57.1677 16.7711 57.6984 17.1086C58.2345 17.4026 58.8416 17.5419 59.4522 17.511C60.0628 17.4801 60.6528 17.2802 61.1564 16.9336C61.4162 16.6804 61.5786 16.3438 61.6152 15.9829C61.6517 15.622 61.5601 15.2597 61.3564 14.9596C61.0804 14.5646 60.5164 14.2326 58.9134 13.5376C57.6565 13.1137 56.5116 12.4112 55.5644 11.4826C55.1134 10.9685 54.7802 10.362 54.5884 9.70558C54.4466 8.95776 54.4257 8.19203 54.5264 7.43758C54.7146 6.56942 55.1651 5.78009 55.817 5.17657C56.4688 4.57304 57.2904 4.1845 58.1704 4.06358C59.0666 3.95649 59.9737 3.98481 60.8614 4.14758ZM52.5184 5.63058L52.5294 7.08458H47.8994V20.2326H44.6344V7.08758H40.0044V5.65958C39.9921 5.17055 40.0055 4.68121 40.0444 4.19358C40.0614 4.17058 42.8764 4.15958 46.2894 4.16558L52.5004 4.18258L52.5184 5.63058Z" fill="#38BDF8"/>
<rect x="32" y="8" width="1" height="7" fill="white"/>
<rect x="29" y="12" width="1" height="7" transform="rotate(-90 29 12)" fill="white"/>
<rect x="72" y="8" width="1" height="7" fill="white"/>
<rect x="69" y="12" width="1" height="7" transform="rotate(-90 69 12)" fill="white"/>
<path d="M17.3223 16.063C18.2449 15.9705 18.9448 15.1997 18.913 14.2747C18.8813 13.3499 18.0858 12.6099 17.1314 12.6099H17.0678C16.0815 12.6407 15.3181 13.4424 15.3499 14.3981C15.3818 14.8606 15.5726 15.2613 15.8589 15.5388C14.7773 17.6045 13.1229 19.1152 10.6415 20.3793C8.95533 21.2426 7.20567 21.5509 5.45596 21.3351C4.02432 21.1501 2.91084 20.5336 2.21084 19.516C1.19287 18.0053 1.09746 16.3712 1.95644 14.7373C2.56093 13.5657 3.51523 12.7023 4.11972 12.2707C3.99248 11.8699 3.80156 11.1916 3.70615 10.6984C-0.906838 13.9356 -0.429592 18.3137 0.970216 20.3793C2.02002 21.9209 4.15156 22.8767 6.50576 22.8767C7.14199 22.8767 7.77825 22.8149 8.41458 22.6609C12.4868 21.8901 15.5727 19.5469 17.3223 16.063ZM22.9216 12.24C20.5038 9.49597 16.9406 7.98528 12.8684 7.98528H12.3595C12.0732 7.43033 11.4687 7.06027 10.8006 7.06027H10.7369C9.75075 7.09116 8.98733 7.89271 9.01908 8.84852C9.05092 9.77345 9.84617 10.5134 10.8006 10.5134H10.8642C11.5641 10.4826 12.1686 10.0509 12.4231 9.46509H12.9957C15.4136 9.46509 17.7041 10.1433 19.7721 11.4691C21.3627 12.4865 22.508 13.8123 23.1443 15.4155C23.6851 16.7104 23.6533 17.9745 23.0806 19.0536C22.1898 20.6876 20.6947 21.5817 18.7222 21.5817C17.4496 21.5817 16.2408 21.2118 15.6044 20.9343C15.2545 21.2426 14.6182 21.7358 14.1728 22.0443C15.5408 22.6608 16.9406 23 18.2768 23C21.3308 23 23.5897 21.3659 24.4487 19.7319C25.3712 17.9436 25.3075 14.8606 22.9216 12.24ZM6.76025 16.587C6.79209 17.512 7.58742 18.2518 8.54183 18.2518H8.6055C9.59167 18.2211 10.3552 17.4195 10.3233 16.4637C10.2916 15.5387 9.49617 14.7989 8.54183 14.7989H8.47825C8.41458 14.7989 8.31908 14.7989 8.25558 14.8296C6.95117 12.7331 6.41035 10.4517 6.60127 7.9852C6.72842 6.13531 7.36474 4.53207 8.47825 3.2063C9.40075 2.06554 11.1823 1.51059 12.3913 1.47984C15.7635 1.41813 17.195 5.4878 17.2905 7.12188C17.7041 7.21437 18.404 7.43024 18.8813 7.58442C18.4994 2.58983 15.3181 0 12.2641 0C9.40075 0 6.76025 2.00403 5.71035 4.9638C4.24697 8.91013 5.20137 12.7023 6.98291 15.693C6.82393 15.9088 6.72842 16.2479 6.76025 16.587Z" fill="#38BDF8"/>
</svg>
